<svg version="1.0" xmlns="http://www.w3.org/2000/svg" width="64.000000pt" height="64.000000pt" viewBox="0 0 64.000000 64.000000" preserveAspectRatio="xMidYMid meet">
  <g transform="translate(0.000000,64.000000) scale(0.100000,-0.100000)" fill="#000000" stroke="none">
    <path
      d="M245 631 c-90 -23 -175 -93 -216 -178 -33 -69 -33 -197 0 -266 30
-62 96 -128 158 -158 69 -33 197 -33 266 0 62 30 128 96 158 158 33 69 33 197
0 266 -30 62 -97 128 -157 156 -51 24 -159 36 -209 22z m125 -249 c0 -26 3
-28 33 -24 51 6 80 -48 54 -98 -11 -21 -20 -25 -60 -26 l-47 -1 0 86 c0 52 -4
81 -9 76 -5 -6 -28 -45 -51 -87 l-42 -78 -99 0 c-54 0 -99 3 -99 6 0 3 21 44
46 90 l46 84 114 0 114 0 0 -28z m210 -37 c17 -21 7 -29 -18 -14 -30 19 -52 5
-52 -35 0 -40 24 -55 50 -31 21 19 30 19 30 0 0 -16 -30 -35 -56 -35 -47 0
-72 74 -37 112 20 22 66 24 83 3z"/>
    <path d="M380 325 c-15 -18 -5 -64 15 -72 35 -13 61 47 33 75 -16 16 -33 15
-48 -3z"/>
  </g>
</svg>
